<svg xmlns="http://www.w3.org/2000/svg" width="24" height="24" viewBox="0 0 24 24"><defs><style>.a{fill:#fff;}.b{fill:none;}</style></defs><g transform="translate(3 3.376)"><g transform="translate(0 0.699)"><path class="a" d="M2883.168,861.007v3.581a4.991,4.991,0,0,1-5,4.978h-7.127a4.991,4.991,0,0,1-5-4.978v-7.162a4.991,4.991,0,0,1,5-4.978l4.874-.017a1.047,1.047,0,0,1,.961,1.1,1.032,1.032,0,0,1-.943.961h-4.891a2.944,2.944,0,0,0-2.952,2.934v7.162a2.948,2.948,0,0,0,2.934,2.917h7.162a2.949,2.949,0,0,0,2.934-2.917l-.018-3.459a1.157,1.157,0,0,1,.263-.751.957.957,0,0,1,.716-.332,1.014,1.014,0,0,1,.733.245A1.04,1.04,0,0,1,2883.168,861.007Z" transform="translate(-2866.05 -852.43)"/></g><g transform="translate(8.96)"><path class="a" d="M2880.438,854.458l-7,7.022-2.253.227.209-2.253,7.022-7.022a1.479,1.479,0,0,1,2.026,0A1.433,1.433,0,0,1,2880.438,854.458Z" transform="translate(-2871.18 -852.03)"/></g></g><rect class="b" width="24" height="24"/></svg>