<svg xmlns="http://www.w3.org/2000/svg" width="24" height="24" viewBox="0 0 24 24"><defs><style>.a{fill:none;}.b{fill:#fff;}</style></defs><rect class="a" width="24" height="24"/><g transform="translate(4.835 3.361)"><g transform="translate(0 3.452)"><path class="b" d="M-1968.8-4467.809l-.882,10.2a3.147,3.147,0,0,1-3.13,2.9h-6.544a3.172,3.172,0,0,1-3.144-2.916l-.868-10.186a1.116,1.116,0,0,1,.256-.812,1.164,1.164,0,0,1,.754-.4,1.1,1.1,0,0,1,1.209,1.01l.882,10.2a.919.919,0,0,0,.91.869h6.544a.927.927,0,0,0,.91-.854l.868-10.214a1.125,1.125,0,0,1,1.209-1.01,1.164,1.164,0,0,1,.768.4A1.183,1.183,0,0,1-1968.8-4467.809Z" transform="translate(1983.373 4469.023)"/></g><g transform="translate(0.005)"><path class="b" d="M-1968.8-4470.34a1.111,1.111,0,0,1-1.11,1.109h-12.348a1.111,1.111,0,0,1-1.11-1.109,1.111,1.111,0,0,1,1.11-1.11h12.348A1.111,1.111,0,0,1-1968.8-4470.34Z" transform="translate(1983.37 4471.45)"/></g></g></svg>